# xmcd
#
# Track frame offsets: 
#        150
#        14299
#        28673
#        42993
#        59782
#        83419
#        103754
#        123201
#        140566
#        157375
#        173578
#
# Disc length: 2490 seconds
#
# Revision: 0
# Processed by: cddbd v1.5.2PL0 Copyright (c) Steve Scherf et al.
# Submitted via: ExactAudioCopyFreeDBPlugin 1.0
#
DISCID=9109b80b
DTITLE=One Mile South - One Mile South
DYEAR=2005
DGENRE=Country
TTITLE0=This Side Of A Heartache
TTITLE1=Make Somethin' Of It
TTITLE2=Half Way To Memphis
TTITLE3=Just Don't Take Your Time
TTITLE4=That's What I Believe
TTITLE5=Robert Morrison
TTITLE6=Fire On Batten Lane
TTITLE7=Beyond Goodbye
TTITLE8=Talk To Me
TTITLE9=Million To One 
TTITLE10=That's Livin' 
EXTD=
EXTT0=
EXTT1=
EXTT2=
EXTT3=
EXTT4=
EXTT5=
EXTT6=
EXTT7=
EXTT8=
EXTT9=
EXTT10=
PLAYORDER=
